<?xml version="1.0" standalone="yes"?>

<svg version="1.1" viewBox="0.0 0.0 151.997375328084 138.5564304461942" fill="none" stroke="none" stroke-linecap="square" stroke-miterlimit="10" xmlns="http://www.w3.org/2000/svg" xmlns:xlink="http://www.w3.org/1999/xlink"><clipPath id="p.0"><path d="m0 0l151.99738 0l0 138.55643l-151.99738 0l0 -138.55643z" clip-rule="nonzero"></path></clipPath><g clip-path="url(#p.0)"><path fill="#000000" fill-opacity="0.0" d="m0 0l151.99738 0l0 138.55643l-151.99738 0z" fill-rule="nonzero"></path><path fill="#d9d9d9" d="m43.10105 7.0892386l65.79527 0l0 124.37795l-65.79527 0z" fill-rule="nonzero"></path><path stroke="#000000" stroke-width="1.0" stroke-linejoin="round" stroke-linecap="butt" d="m43.10105 7.0892386l65.79527 0l0 124.37795l-65.79527 0z" fill-rule="nonzero"></path><path fill="#cccccc" d="m120.84121 27.417322l0 0c0 -7.262327 5.6193542 -13.149606 12.551186 -13.149606l0 0c3.3287811 0 6.5212097 1.3854008 8.875015 3.85143c2.3538055 2.4660301 3.6761627 5.810684 3.6761627 9.298176l0 0c0 7.262327 -5.6193542 13.149607 -12.551178 13.149607l0 0c-6.9318314 0 -12.551186 -5.8872795 -12.551186 -13.149607z" fill-rule="nonzero"></path><path stroke="#000000" stroke-width="1.0" stroke-linejoin="round" stroke-linecap="butt" d="m120.84121 27.417322l0 0c0 -7.262327 5.6193542 -13.149606 12.551186 -13.149606l0 0c3.3287811 0 6.5212097 1.3854008 8.875015 3.85143c2.3538055 2.4660301 3.6761627 5.810684 3.6761627 9.298176l0 0c0 7.262327 -5.6193542 13.149607 -12.551178 13.149607l0 0c-6.9318314 0 -12.551186 -5.8872795 -12.551186 -13.149607z" fill-rule="nonzero"></path><path fill="#cccccc" d="m120.84121 111.13911l0 0c0 -7.262329 5.6193542 -13.149605 12.551186 -13.149605l0 0c3.3287811 0 6.5212097 1.3853989 8.875015 3.8514328c2.3538055 2.4660263 3.6761627 5.810684 3.6761627 9.298172l0 0c0 7.262329 -5.6193542 13.149605 -12.551178 13.149605l0 0c-6.9318314 0 -12.551186 -5.8872757 -12.551186 -13.149605z" fill-rule="nonzero"></path><path stroke="#000000" stroke-width="1.0" stroke-linejoin="round" stroke-linecap="butt" d="m120.84121 111.13911l0 0c0 -7.262329 5.6193542 -13.149605 12.551186 -13.149605l0 0c3.3287811 0 6.5212097 1.3853989 8.875015 3.8514328c2.3538055 2.4660263 3.6761627 5.810684 3.6761627 9.298172l0 0c0 7.262329 -5.6193542 13.149605 -12.551178 13.149605l0 0c-6.9318314 0 -12.551186 -5.8872757 -12.551186 -13.149605z" fill-rule="nonzero"></path><path fill="#cccccc" d="m120.84121 69.27821l0 0c0 -7.2623253 5.6193542 -13.149605 12.551186 -13.149605l0 0c3.3287811 0 6.5212097 1.3854027 8.875015 3.851429c2.3538055 2.4660301 3.6761627 5.810688 3.6761627 9.298176l0 0c0 7.262329 -5.6193542 13.149605 -12.551178 13.149605l0 0c-6.9318314 0 -12.551186 -5.8872757 -12.551186 -13.149605z" fill-rule="nonzero"></path><path stroke="#000000" stroke-width="1.0" stroke-linejoin="round" stroke-linecap="butt" d="m120.84121 69.27821l0 0c0 -7.2623253 5.6193542 -13.149605 12.551186 -13.149605l0 0c3.3287811 0 6.5212097 1.3854027 8.875015 3.851429c2.3538055 2.4660301 3.6761627 5.810688 3.6761627 9.298176l0 0c0 7.262329 -5.6193542 13.149605 -12.551178 13.149605l0 0c-6.9318314 0 -12.551186 -5.8872757 -12.551186 -13.149605z" fill-rule="nonzero"></path><path fill="#cccccc" d="m6.053806 111.13911l0 0c0 -7.262329 5.6193547 -13.149605 12.55118 -13.149605l0 0c3.3287811 0 6.521223 1.3853989 8.875027 3.8514328c2.3538017 2.4660263 3.676155 5.810684 3.676155 9.298172l0 0c0 7.262329 -5.6193542 13.149605 -12.551182 13.149605l0 0c-6.9318256 0 -12.55118 -5.8872757 -12.55118 -13.149605z" fill-rule="nonzero"></path><path stroke="#000000" stroke-width="1.0" stroke-linejoin="round" stroke-linecap="butt" d="m6.053806 111.13911l0 0c0 -7.262329 5.6193547 -13.149605 12.55118 -13.149605l0 0c3.3287811 0 6.521223 1.3853989 8.875027 3.8514328c2.3538017 2.4660263 3.676155 5.810684 3.676155 9.298172l0 0c0 7.262329 -5.6193542 13.149605 -12.551182 13.149605l0 0c-6.9318256 0 -12.55118 -5.8872757 -12.55118 -13.149605z" fill-rule="nonzero"></path><path fill="#cccccc" d="m6.053806 69.27821l0 0c0 -7.2623253 5.6193547 -13.149605 12.55118 -13.149605l0 0c3.3287811 0 6.521223 1.3854027 8.875027 3.851429c2.3538017 2.4660301 3.676155 5.810688 3.676155 9.298176l0 0c0 7.262329 -5.6193542 13.149605 -12.551182 13.149605l0 0c-6.9318256 0 -12.55118 -5.8872757 -12.55118 -13.149605z" fill-rule="nonzero"></path><path stroke="#000000" stroke-width="1.0" stroke-linejoin="round" stroke-linecap="butt" d="m6.053806 69.27821l0 0c0 -7.2623253 5.6193547 -13.149605 12.55118 -13.149605l0 0c3.3287811 0 6.521223 1.3854027 8.875027 3.851429c2.3538017 2.4660301 3.676155 5.810688 3.676155 9.298176l0 0c0 7.262329 -5.6193542 13.149605 -12.551182 13.149605l0 0c-6.9318256 0 -12.55118 -5.8872757 -12.55118 -13.149605z" fill-rule="nonzero"></path><path fill="#cccccc" d="m6.053806 27.417322l0 0c0 -7.262327 5.6193547 -13.149606 12.55118 -13.149606l0 0c3.3287811 0 6.521223 1.3854008 8.875027 3.85143c2.3538017 2.4660301 3.676155 5.810684 3.676155 9.298176l0 0c0 7.262327 -5.6193542 13.149607 -12.551182 13.149607l0 0c-6.9318256 0 -12.55118 -5.8872795 -12.55118 -13.149607z" fill-rule="nonzero"></path><path stroke="#000000" stroke-width="1.0" stroke-linejoin="round" stroke-linecap="butt" d="m6.053806 27.417322l0 0c0 -7.262327 5.6193547 -13.149606 12.55118 -13.149606l0 0c3.3287811 0 6.521223 1.3854008 8.875027 3.85143c2.3538017 2.4660301 3.676155 5.810684 3.676155 9.298176l0 0c0 7.262327 -5.6193542 13.149607 -12.551182 13.149607l0 0c-6.9318256 0 -12.55118 -5.8872795 -12.55118 -13.149607z" fill-rule="nonzero"></path></g></svg>

