<?xml version="1.0" standalone="yes"?>

<svg version="1.1" viewBox="0.0 0.0 171.0288713910761 150.6981627296588" fill="none" stroke="none" stroke-linecap="square" stroke-miterlimit="10" xmlns="http://www.w3.org/2000/svg" xmlns:xlink="http://www.w3.org/1999/xlink"><clipPath id="p.0"><path d="m0 0l171.02887 0l0 150.69817l-171.02887 0l0 -150.69817z" clip-rule="nonzero"></path></clipPath><g clip-path="url(#p.0)"><path fill="#000000" fill-opacity="0.0" d="m0 0l171.02887 0l0 150.69817l-171.02887 0z" fill-rule="nonzero"></path><path fill="#990000" d="m52.6168 13.160105l65.79527 0l0 124.37795l-65.79527 0z" fill-rule="nonzero"></path><path stroke="#000000" stroke-width="1.0" stroke-linejoin="round" stroke-linecap="butt" d="m52.6168 13.160105l65.79527 0l0 124.37795l-65.79527 0z" fill-rule="nonzero"></path><path fill="#990000" d="m130.35695 33.48819l0 0c0 -7.262327 5.6193542 -13.149607 12.551193 -13.149607l0 0c3.3287811 0 6.5212097 1.3854008 8.875015 3.851431c2.3538055 2.4660282 3.6761627 5.8106823 3.6761627 9.298176l0 0c0 7.2623253 -5.6193542 13.149605 -12.551178 13.149605l0 0c-6.931839 0 -12.551193 -5.8872795 -12.551193 -13.149605z" fill-rule="nonzero"></path><path stroke="#000000" stroke-width="1.0" stroke-linejoin="round" stroke-linecap="butt" d="m130.35695 33.48819l0 0c0 -7.262327 5.6193542 -13.149607 12.551193 -13.149607l0 0c3.3287811 0 6.5212097 1.3854008 8.875015 3.851431c2.3538055 2.4660282 3.6761627 5.8106823 3.6761627 9.298176l0 0c0 7.2623253 -5.6193542 13.149605 -12.551178 13.149605l0 0c-6.931839 0 -12.551193 -5.8872795 -12.551193 -13.149605z" fill-rule="nonzero"></path><path fill="#990000" d="m130.35695 117.20998l0 0c0 -7.262329 5.6193542 -13.149612 12.551193 -13.149612l0 0c3.3287811 0 6.5212097 1.3854065 8.875015 3.8514328c2.3538055 2.466034 3.6761627 5.810684 3.6761627 9.29818l0 0c0 7.2623215 -5.6193542 13.149597 -12.551178 13.149597l0 0c-6.931839 0 -12.551193 -5.8872757 -12.551193 -13.149597z" fill-rule="nonzero"></path><path stroke="#000000" stroke-width="1.0" stroke-linejoin="round" stroke-linecap="butt" d="m130.35695 117.20998l0 0c0 -7.262329 5.6193542 -13.149612 12.551193 -13.149612l0 0c3.3287811 0 6.5212097 1.3854065 8.875015 3.8514328c2.3538055 2.466034 3.6761627 5.810684 3.6761627 9.29818l0 0c0 7.2623215 -5.6193542 13.149597 -12.551178 13.149597l0 0c-6.931839 0 -12.551193 -5.8872757 -12.551193 -13.149597z" fill-rule="nonzero"></path><path fill="#990000" d="m130.35695 75.34908l0 0c0 -7.262329 5.6193542 -13.149609 12.551193 -13.149609l0 0c3.3287811 0 6.5212097 1.3854027 8.875015 3.851429c2.3538055 2.466034 3.6761627 5.810684 3.6761627 9.29818l0 0c0 7.262329 -5.6193542 13.149605 -12.551178 13.149605l0 0c-6.931839 0 -12.551193 -5.8872757 -12.551193 -13.149605z" fill-rule="nonzero"></path><path stroke="#000000" stroke-width="1.0" stroke-linejoin="round" stroke-linecap="butt" d="m130.35695 75.34908l0 0c0 -7.262329 5.6193542 -13.149609 12.551193 -13.149609l0 0c3.3287811 0 6.5212097 1.3854027 8.875015 3.851429c2.3538055 2.466034 3.6761627 5.810684 3.6761627 9.29818l0 0c0 7.262329 -5.6193542 13.149605 -12.551178 13.149605l0 0c-6.931839 0 -12.551193 -5.8872757 -12.551193 -13.149605z" fill-rule="nonzero"></path><path fill="#990000" d="m15.569553 117.20998l0 0c0 -7.262329 5.619356 -13.149612 12.551182 -13.149612l0 0c3.3287792 0 6.521221 1.3854065 8.875027 3.8514328c2.3538017 2.466034 3.676155 5.810684 3.676155 9.29818l0 0c0 7.2623215 -5.6193542 13.149597 -12.551182 13.149597l0 0c-6.9318256 0 -12.551182 -5.8872757 -12.551182 -13.149597z" fill-rule="nonzero"></path><path stroke="#000000" stroke-width="1.0" stroke-linejoin="round" stroke-linecap="butt" d="m15.569553 117.20998l0 0c0 -7.262329 5.619356 -13.149612 12.551182 -13.149612l0 0c3.3287792 0 6.521221 1.3854065 8.875027 3.8514328c2.3538017 2.466034 3.676155 5.810684 3.676155 9.29818l0 0c0 7.2623215 -5.6193542 13.149597 -12.551182 13.149597l0 0c-6.9318256 0 -12.551182 -5.8872757 -12.551182 -13.149597z" fill-rule="nonzero"></path><path fill="#990000" d="m15.569553 75.34908l0 0c0 -7.262329 5.619356 -13.149609 12.551182 -13.149609l0 0c3.3287792 0 6.521221 1.3854027 8.875027 3.851429c2.3538017 2.466034 3.676155 5.810684 3.676155 9.29818l0 0c0 7.262329 -5.6193542 13.149605 -12.551182 13.149605l0 0c-6.9318256 0 -12.551182 -5.8872757 -12.551182 -13.149605z" fill-rule="nonzero"></path><path stroke="#000000" stroke-width="1.0" stroke-linejoin="round" stroke-linecap="butt" d="m15.569553 75.34908l0 0c0 -7.262329 5.619356 -13.149609 12.551182 -13.149609l0 0c3.3287792 0 6.521221 1.3854027 8.875027 3.851429c2.3538017 2.466034 3.676155 5.810684 3.676155 9.29818l0 0c0 7.262329 -5.6193542 13.149605 -12.551182 13.149605l0 0c-6.9318256 0 -12.551182 -5.8872757 -12.551182 -13.149605z" fill-rule="nonzero"></path><path fill="#990000" d="m15.569553 33.48819l0 0c0 -7.262327 5.619356 -13.149607 12.551182 -13.149607l0 0c3.3287792 0 6.521221 1.3854008 8.875027 3.851431c2.3538017 2.4660282 3.676155 5.8106823 3.676155 9.298176l0 0c0 7.2623253 -5.6193542 13.149605 -12.551182 13.149605l0 0c-6.9318256 0 -12.551182 -5.8872795 -12.551182 -13.149605z" fill-rule="nonzero"></path><path stroke="#000000" stroke-width="1.0" stroke-linejoin="round" stroke-linecap="butt" d="m15.569553 33.48819l0 0c0 -7.262327 5.619356 -13.149607 12.551182 -13.149607l0 0c3.3287792 0 6.521221 1.3854008 8.875027 3.851431c2.3538017 2.4660282 3.676155 5.8106823 3.676155 9.298176l0 0c0 7.2623253 -5.6193542 13.149605 -12.551182 13.149605l0 0c-6.9318256 0 -12.551182 -5.8872795 -12.551182 -13.149605z" fill-rule="nonzero"></path></g></svg>

