<?xml version="1.0" standalone="yes"?>

<svg version="1.1" viewBox="0.0 0.0 163.85301837270342 144.71653543307087" fill="none" stroke="none" stroke-linecap="square" stroke-miterlimit="10" xmlns="http://www.w3.org/2000/svg" xmlns:xlink="http://www.w3.org/1999/xlink"><clipPath id="p.0"><path d="m0 0l163.85301 0l0 144.71654l-163.85301 0l0 -144.71654z" clip-rule="nonzero"></path></clipPath><g clip-path="url(#p.0)"><path fill="#000000" fill-opacity="0.0" d="m0 0l163.85301 0l0 144.71654l-163.85301 0z" fill-rule="nonzero"></path><path fill="#38761d" d="m49.02887 10.167979l65.79528 0l0 124.37795l-65.79528 0z" fill-rule="nonzero"></path><path stroke="#000000" stroke-width="1.0" stroke-linejoin="round" stroke-linecap="butt" d="m49.02887 10.167979l65.79528 0l0 124.37795l-65.79528 0z" fill-rule="nonzero"></path><path fill="#38761d" d="m126.76903 30.496063l0 0c0 -7.262327 5.6193542 -13.149607 12.551178 -13.149607l0 0c3.3287811 0 6.521225 1.3854008 8.8750305 3.851431c2.3538055 2.4660301 3.6761475 5.8106823 3.6761475 9.298176l0 0c0 7.2623253 -5.6193542 13.149605 -12.551178 13.149605l0 0c-6.9318237 0 -12.551178 -5.8872795 -12.551178 -13.149605z" fill-rule="nonzero"></path><path stroke="#000000" stroke-width="1.0" stroke-linejoin="round" stroke-linecap="butt" d="m126.76903 30.496063l0 0c0 -7.262327 5.6193542 -13.149607 12.551178 -13.149607l0 0c3.3287811 0 6.521225 1.3854008 8.8750305 3.851431c2.3538055 2.4660301 3.6761475 5.8106823 3.6761475 9.298176l0 0c0 7.2623253 -5.6193542 13.149605 -12.551178 13.149605l0 0c-6.9318237 0 -12.551178 -5.8872795 -12.551178 -13.149605z" fill-rule="nonzero"></path><path fill="#38761d" d="m126.76903 114.21785l0 0c0 -7.262329 5.6193542 -13.149605 12.551178 -13.149605l0 0c3.3287811 0 6.521225 1.3853989 8.8750305 3.8514252c2.3538055 2.466034 3.6761475 5.810684 3.6761475 9.29818l0 0c0 7.2623215 -5.6193542 13.149605 -12.551178 13.149605l0 0c-6.9318237 0 -12.551178 -5.8872833 -12.551178 -13.149605z" fill-rule="nonzero"></path><path stroke="#000000" stroke-width="1.0" stroke-linejoin="round" stroke-linecap="butt" d="m126.76903 114.21785l0 0c0 -7.262329 5.6193542 -13.149605 12.551178 -13.149605l0 0c3.3287811 0 6.521225 1.3853989 8.8750305 3.8514252c2.3538055 2.466034 3.6761475 5.810684 3.6761475 9.29818l0 0c0 7.2623215 -5.6193542 13.149605 -12.551178 13.149605l0 0c-6.9318237 0 -12.551178 -5.8872833 -12.551178 -13.149605z" fill-rule="nonzero"></path><path fill="#38761d" d="m126.76903 72.35696l0 0c0 -7.262329 5.6193542 -13.149609 12.551178 -13.149609l0 0c3.3287811 0 6.521225 1.3854027 8.8750305 3.8514328c2.3538055 2.4660301 3.6761475 5.8106804 3.6761475 9.298176l0 0c0 7.262329 -5.6193542 13.149605 -12.551178 13.149605l0 0c-6.9318237 0 -12.551178 -5.8872757 -12.551178 -13.149605z" fill-rule="nonzero"></path><path stroke="#000000" stroke-width="1.0" stroke-linejoin="round" stroke-linecap="butt" d="m126.76903 72.35696l0 0c0 -7.262329 5.6193542 -13.149609 12.551178 -13.149609l0 0c3.3287811 0 6.521225 1.3854027 8.8750305 3.8514328c2.3538055 2.4660301 3.6761475 5.8106804 3.6761475 9.298176l0 0c0 7.262329 -5.6193542 13.149605 -12.551178 13.149605l0 0c-6.9318237 0 -12.551178 -5.8872757 -12.551178 -13.149605z" fill-rule="nonzero"></path><path fill="#38761d" d="m11.981627 114.21785l0 0c0 -7.262329 5.619355 -13.149605 12.551181 -13.149605l0 0c3.3287811 0 6.521223 1.3853989 8.875025 3.8514252c2.3538017 2.466034 3.676155 5.810684 3.676155 9.29818l0 0c0 7.2623215 -5.6193542 13.149605 -12.55118 13.149605l0 0c-6.9318256 0 -12.551181 -5.8872833 -12.551181 -13.149605z" fill-rule="nonzero"></path><path stroke="#000000" stroke-width="1.0" stroke-linejoin="round" stroke-linecap="butt" d="m11.981627 114.21785l0 0c0 -7.262329 5.619355 -13.149605 12.551181 -13.149605l0 0c3.3287811 0 6.521223 1.3853989 8.875025 3.8514252c2.3538017 2.466034 3.676155 5.810684 3.676155 9.29818l0 0c0 7.2623215 -5.6193542 13.149605 -12.55118 13.149605l0 0c-6.9318256 0 -12.551181 -5.8872833 -12.551181 -13.149605z" fill-rule="nonzero"></path><path fill="#38761d" d="m11.981627 72.35696l0 0c0 -7.262329 5.619355 -13.149609 12.551181 -13.149609l0 0c3.3287811 0 6.521223 1.3854027 8.875025 3.8514328c2.3538017 2.4660301 3.676155 5.8106804 3.676155 9.298176l0 0c0 7.262329 -5.6193542 13.149605 -12.55118 13.149605l0 0c-6.9318256 0 -12.551181 -5.8872757 -12.551181 -13.149605z" fill-rule="nonzero"></path><path stroke="#000000" stroke-width="1.0" stroke-linejoin="round" stroke-linecap="butt" d="m11.981627 72.35696l0 0c0 -7.262329 5.619355 -13.149609 12.551181 -13.149609l0 0c3.3287811 0 6.521223 1.3854027 8.875025 3.8514328c2.3538017 2.4660301 3.676155 5.8106804 3.676155 9.298176l0 0c0 7.262329 -5.6193542 13.149605 -12.55118 13.149605l0 0c-6.9318256 0 -12.551181 -5.8872757 -12.551181 -13.149605z" fill-rule="nonzero"></path><path fill="#38761d" d="m11.981627 30.496063l0 0c0 -7.262327 5.619355 -13.149607 12.551181 -13.149607l0 0c3.3287811 0 6.521223 1.3854008 8.875025 3.851431c2.3538017 2.4660301 3.676155 5.8106823 3.676155 9.298176l0 0c0 7.2623253 -5.6193542 13.149605 -12.55118 13.149605l0 0c-6.9318256 0 -12.551181 -5.8872795 -12.551181 -13.149605z" fill-rule="nonzero"></path><path stroke="#000000" stroke-width="1.0" stroke-linejoin="round" stroke-linecap="butt" d="m11.981627 30.496063l0 0c0 -7.262327 5.619355 -13.149607 12.551181 -13.149607l0 0c3.3287811 0 6.521223 1.3854008 8.875025 3.851431c2.3538017 2.4660301 3.676155 5.8106823 3.676155 9.298176l0 0c0 7.2623253 -5.6193542 13.149605 -12.55118 13.149605l0 0c-6.9318256 0 -12.551181 -5.8872795 -12.551181 -13.149605z" fill-rule="nonzero"></path></g></svg>

