<?xml version="1.0" standalone="yes"?>

<svg version="1.1" viewBox="0.0 0.0 168.2729658792651 100.0" fill="none" stroke="none" stroke-linecap="square" stroke-miterlimit="10" xmlns="http://www.w3.org/2000/svg" xmlns:xlink="http://www.w3.org/1999/xlink"><clipPath id="p.0"><path d="m0 0l168.27296 0l0 100.0l-168.27296 0l0 -100.0z" clip-rule="nonzero"></path></clipPath><g clip-path="url(#p.0)"><path fill="#000000" fill-opacity="0.0" d="m0 0l168.27296 0l0 100.0l-168.27296 0z" fill-rule="nonzero"></path><path fill="#cccccc" d="m128.97769 32.90814l0 0c0 -7.262329 5.6193542 -13.149609 12.551178 -13.149609l0 0c3.3287811 0 6.521225 1.3854008 8.8750305 3.851431c2.3538055 2.4660301 3.6761475 5.810684 3.6761475 9.298178l0 0c0 7.2623253 -5.6193542 13.149605 -12.551178 13.149605l0 0c-6.9318237 0 -12.551178 -5.8872795 -12.551178 -13.149605z" fill-rule="nonzero"></path><path stroke="#000000" stroke-width="1.0" stroke-linejoin="round" stroke-linecap="butt" d="m128.97769 32.90814l0 0c0 -7.262329 5.6193542 -13.149609 12.551178 -13.149609l0 0c3.3287811 0 6.521225 1.3854008 8.8750305 3.851431c2.3538055 2.4660301 3.6761475 5.810684 3.6761475 9.298178l0 0c0 7.2623253 -5.6193542 13.149605 -12.551178 13.149605l0 0c-6.9318237 0 -12.551178 -5.8872795 -12.551178 -13.149605z" fill-rule="nonzero"></path><path fill="#cccccc" d="m14.190289 64.35171l0 0c0 -7.262329 5.619356 -13.149609 12.551182 -13.149609l0 0c3.3287792 0 6.521221 1.3854027 8.875023 3.8514328c2.3538055 2.4660263 3.676159 5.8106804 3.676159 9.298176l0 0c0 7.262329 -5.619358 13.149605 -12.551182 13.149605l0 0c-6.9318256 0 -12.551182 -5.8872757 -12.551182 -13.149605z" fill-rule="nonzero"></path><path stroke="#000000" stroke-width="1.0" stroke-linejoin="round" stroke-linecap="butt" d="m14.190289 64.35171l0 0c0 -7.262329 5.619356 -13.149609 12.551182 -13.149609l0 0c3.3287792 0 6.521221 1.3854027 8.875023 3.8514328c2.3538055 2.4660263 3.676159 5.8106804 3.676159 9.298176l0 0c0 7.262329 -5.619358 13.149605 -12.551182 13.149605l0 0c-6.9318256 0 -12.551182 -5.8872757 -12.551182 -13.149605z" fill-rule="nonzero"></path><path fill="#cccccc" d="m14.190289 32.90814l0 0c0 -7.262329 5.619356 -13.149609 12.551182 -13.149609l0 0c3.3287792 0 6.521221 1.3854008 8.875023 3.851431c2.3538055 2.4660301 3.676159 5.810684 3.676159 9.298178l0 0c0 7.2623253 -5.619358 13.149605 -12.551182 13.149605l0 0c-6.9318256 0 -12.551182 -5.8872795 -12.551182 -13.149605z" fill-rule="nonzero"></path><path stroke="#000000" stroke-width="1.0" stroke-linejoin="round" stroke-linecap="butt" d="m14.190289 32.90814l0 0c0 -7.262329 5.619356 -13.149609 12.551182 -13.149609l0 0c3.3287792 0 6.521221 1.3854008 8.875023 3.851431c2.3538055 2.4660301 3.676159 5.810684 3.676159 9.298178l0 0c0 7.2623253 -5.619358 13.149605 -12.551182 13.149605l0 0c-6.9318256 0 -12.551182 -5.8872795 -12.551182 -13.149605z" fill-rule="nonzero"></path><path fill="#cccccc" d="m128.97769 64.35171l0 0c0 -7.262329 5.6193542 -13.149609 12.551178 -13.149609l0 0c3.3287811 0 6.521225 1.3854027 8.8750305 3.8514328c2.3538055 2.4660263 3.6761475 5.8106804 3.6761475 9.298176l0 0c0 7.262329 -5.6193542 13.149605 -12.551178 13.149605l0 0c-6.9318237 0 -12.551178 -5.8872757 -12.551178 -13.149605z" fill-rule="nonzero"></path><path stroke="#000000" stroke-width="1.0" stroke-linejoin="round" stroke-linecap="butt" d="m128.97769 64.35171l0 0c0 -7.262329 5.6193542 -13.149609 12.551178 -13.149609l0 0c3.3287811 0 6.521225 1.3854027 8.8750305 3.8514328c2.3538055 2.4660263 3.6761475 5.8106804 3.6761475 9.298176l0 0c0 7.262329 -5.6193542 13.149605 -12.551178 13.149605l0 0c-6.9318237 0 -12.551178 -5.8872757 -12.551178 -13.149605z" fill-rule="nonzero"></path><path fill="#cccccc" d="m51.237534 15.322835l65.79527 0l0 69.354324l-65.79527 0z" fill-rule="nonzero"></path><path stroke="#000000" stroke-width="1.0" stroke-linejoin="round" stroke-linecap="butt" d="m51.237534 15.322835l65.79527 0l0 69.354324l-65.79527 0z" fill-rule="nonzero"></path></g></svg>

